Coordinates
version=1
nRows=22
nColumns=24
inDegrees=yes

Units are S.I. units (second, meters, Newtons, ...)
Angles are in degrees.

endheader
time	pelvis_tilt	pelvis_list	pelvis_rotation	pelvis_tx	pelvis_ty	pelvis_tz	hip_flexion_r	hip_adduction_r	hip_rotation_r	knee_angle_r	ankle_angle_r	subtalar_angle_r	mtp_angle_r	hip_flexion_l	hip_adduction_l	hip_rotation_l	knee_angle_l	ankle_angle_l	subtalar_angle_l	mtp_angle_l	lumbar_extension	lumbar_bending	lumbar_rotation
      2.14500000	     27.91920426	     -6.19829727	     -4.19132684	      0.55024868	      0.90691827	     -0.01921473	    -35.78472279	      2.91128914	      2.64990070	    -38.28670154	     -5.27860077	     14.87496677	     50.61719201	    -15.16718052	     -0.86059896	     12.36191133	    -10.88975940	     -6.05292071	    -32.21100617	     18.38965709	    -35.96243235	     -0.68796464	      7.11271365
      2.15000000	     27.89536969	     -6.00293729	     -4.16048794	      0.55611791	      0.90751192	     -0.01979365	    -35.02182969	      2.45223249	      1.64465977	    -39.85902517	     -6.34850573	     14.65749043	     50.54613188	    -15.66448251	     -0.61000064	     12.41684167	    -10.61698262	     -5.88729429	    -32.19662390	     18.36267196	    -35.84910386	     -0.90642029	      6.90127901
      2.15500000	     27.82688090	     -5.81550747	     -4.07047436	      0.56188902	      0.90803035	     -0.02048710	    -34.21045632	      2.04205776	      0.68408292	    -41.38789770	     -7.25553007	     14.21157282	     50.36452419	    -16.10076371	     -0.38089844	     12.65244715	    -10.35230224	     -5.68969321	    -32.24018269	     18.29808398	    -35.70384319	     -1.07532115	      6.64913390
      2.16000000	     27.77064919	     -5.65455768	     -3.98276411	      0.56764329	      0.90856281	     -0.02116228	    -33.43494636	      1.66108009	     -0.18600259	    -42.82777460	     -7.99335454	     13.50648793	     49.99701927	    -16.57694857	     -0.18421061	     12.83355141	    -10.03358214	     -5.51750319	    -32.35694331	     18.18552107	    -35.57427695	     -1.22007191	      6.39038702
      2.16500000	     27.78489501	     -5.52769011	     -3.90097980	      0.57323803	      0.90916704	     -0.02184610	    -32.73668315	      1.31064274	     -0.95649153	    -44.19953952	     -8.57796451	     12.58198364	     49.11962858	    -17.12483480	     -0.01359354	     12.97655875	     -9.71970090	     -5.41706187	    -32.56876687	     17.94333184	    -35.53977445	     -1.33990264	      6.20528953
      2.17000000	     27.76501188	     -5.41500894	     -3.78913062	      0.57881639	      0.90972971	     -0.02256344	    -32.01354414	      1.00037101	     -1.68862838	    -45.49747696	     -8.96621878	     11.61535251	     47.97592700	    -17.64369310	      0.12219361	     13.15463719	     -9.38187894	     -5.27009885	    -32.66232450	     17.70548491	    -35.47171681	     -1.42390205	      5.98452244
      2.17500000	     27.73477684	     -5.31871055	     -3.64967452	      0.58435365	      0.91026902	     -0.02330505	    -31.29716028	      0.73690045	     -2.36623587	    -46.70331658	     -9.14703542	     10.54927924	     46.82552968	    -18.15127320	      0.22570093	     13.35500633	     -9.03777570	     -5.08731324	    -32.73597768	     17.50946179	    -35.40045308	     -1.47420643	      5.72271560
      2.18000000	     27.68710760	     -5.21040192	     -3.47452683	      0.58981996	      0.91075776	     -0.02415619	    -30.55624719	      0.46917682	     -3.05820459	    -47.89070667	     -8.85243234	      9.89111884	     42.89377745	    -18.63750632	      0.33292179	     13.64636915	     -8.67962272	     -4.94327151	    -32.82281654	     16.83490069	    -35.32023536	     -1.50511449	      5.43420651
      2.18500000	     27.66061734	     -5.16803910	     -3.29977465	      0.59522173	      0.91130022	     -0.02495283	    -29.86551103	      0.30375630	     -3.63516983	    -48.90786121	     -8.69296000	      8.55952529	     42.64520228	    -19.13359742	      0.36257182	     13.82087501	     -8.36165544	     -4.69807022	    -32.79848429	     16.82095503	    -35.27061825	     -1.47652644	      5.20026356
      2.19000000	     27.63616167	     -5.14465800	     -3.10860001	      0.60056119	      0.91183536	     -0.02573635	    -29.18586888	      0.18554099	     -4.16594423	    -49.83592834	     -8.36949315	      7.17475163	     42.30304021	    -19.64070347	      0.35868995	     14.01645226	     -8.01406593	     -4.49343265	    -32.83576826	     16.79600304	    -35.23445975	     -1.42365249	      4.92665538
      2.19500000	     27.62290736	     -5.14323321	     -2.90698362	      0.60582469	      0.91238655	     -0.02653390	    -28.52393409	      0.10718060	     -4.66034162	    -50.67075011	     -7.91358950	      5.73673707	     41.82304370	    -20.15615866	      0.32672343	     14.22570119	     -7.66908390	     -4.30854763	    -32.90573945	     16.76003194	    -35.21648837	     -1.34191990	      4.69137002
      2.20000000	     27.61220345	     -5.15762878	     -2.68961379	      0.61102422	      0.91292874	     -0.02734262	    -27.87212072	      0.06730001	     -5.12488947	    -51.41407562	     -7.29407844	      4.30892970	     41.23069918	    -20.66934113	      0.26806586	     14.43874466	     -7.32533326	     -4.12767913	    -32.98374691	     16.72226184	    -35.21075127	     -1.23478549	      4.44624042
      2.20500000	     27.59491936	     -5.19496399	     -2.46112700	      0.61615185	      0.91346242	     -0.02815623	    -27.21696622	      0.07388113	     -5.55211810	    -52.06625044	     -6.54871941	      2.89022722	     40.50697752	    -21.17085574	      0.17664404	     14.67590723	     -6.98465489	     -3.94815085	    -33.06898648	     16.68029893	    -35.20679392	     -1.09651959	      4.22926122
      2.21000000	     27.58977717	     -5.23780447	     -2.22336045	      0.62121354	      0.91398680	     -0.02899232	    -26.57646622	      0.09863562	     -5.94209693	    -52.67618416	     -5.29517777	      2.10659946	     35.54820138	    -21.68809453	      0.07674884	     14.94969808	     -6.62456256	     -3.88367425	    -33.34576230	     16.35410309	    -35.22395675	     -0.94365407	      3.97126137
      2.21500000	     27.54871190	     -5.29225356	     -1.98527205	      0.62627239	      0.91446118	     -0.02978400	    -25.90680117	      0.15755430	     -6.31161966	    -53.14653383	     -4.36281269	      0.81108069	     35.37962879	    -22.14495711	     -0.04825267	     15.14331354	     -6.31424381	     -3.60344774	    -33.31557851	     16.37267449	    -35.20266792	     -0.77820882	      3.71659545
      2.22000000	     27.51982969	     -5.38565831	     -1.73942028	      0.63124039	      0.91495316	     -0.03055345	    -25.25572020	      0.28658958	     -6.62639747	    -53.50940107	     -3.38088225	     -0.52139916	     35.06521191	    -22.61677951	     -0.22284358	     15.37747174	     -5.99273086	     -3.37881537	    -33.34213401	     16.37102685	    -35.20469028	     -0.57294285	      3.52409865
      2.22500000	     27.50341720	     -5.52182241	     -1.48459855	      0.63617385	      0.91546498	     -0.03129037	    -24.63394408	      0.49716048	     -6.86916745	    -53.75311176	     -2.31959916	     -1.79095754	     34.30084090	    -23.10067505	     -0.44861212	     15.56893427	     -5.67146599	     -3.20643998	    -33.46868010	     16.32677509	    -35.22305854	     -0.32384148	      3.31682321
      2.23000000	     27.43544117	     -5.57397028	     -1.23970576	      0.64105843	      0.91583362	     -0.03205936	    -23.92688148	      0.59558876	     -7.17573914	    -54.03127931	     -0.91495181	     -2.47588354	     30.93219183	    -23.51760244	     -0.58392021	     15.90110234	     -5.35059593	     -3.08223821	    -33.71863759	     16.13539866	    -35.19216382	     -0.15105663	      3.07961805
      2.23500000	     27.38242950	     -5.66813415	     -0.99393767	      0.64592494	      0.91622194	     -0.03278021	    -23.25945830	      0.76268166	     -7.43079780	    -54.15024072	      0.28283102	     -3.41548133	     30.85185532	    -23.92570837	     -0.76746951	     16.09687874	     -5.09146062	     -2.81449565	    -33.73731705	     16.15056647	    -35.17885670	      0.05933176	      2.87226542
      2.24000000	     27.30277358	     -5.80195956	     -0.75379618	      0.65075242	      0.91658267	     -0.03345200	    -22.56047208	      1.01177044	     -7.59837022	    -54.17629635	      1.32742088	     -4.54089645	     30.50766067	    -24.33286233	     -1.00386115	     16.37157849	     -4.76722565	     -2.60433714	    -33.81168597	     16.13359388	    -35.14056536	      0.30755677	      2.69112676
      2.24500000	     27.24367082	     -5.95368352	     -0.50992325	      0.65552760	      0.91694758	     -0.03409791	    -21.89426329	      1.30347097	     -7.71662383	    -54.10770304	      2.47120601	     -5.47078371	     29.55757766	    -24.74370757	     -1.25606238	     16.59938254	     -4.47293665	     -2.47690932	    -34.06069557	     16.03791986	    -35.12987045	      0.57266065	      2.49624369
      2.25000000	     27.18452501	     -6.04914038	     -0.29437380	      0.66029067	      0.91724885	     -0.03470695	    -21.22202634	      1.51084478	     -7.84694178	    -54.00830238	      3.71477008	     -5.99355596	     29.50177677	    -25.15846779	     -1.44806204	     16.84391956	     -4.17025239	     -2.23154419	    -34.08158274	     16.04901353	    -35.11974301	      0.76739412	      2.33139887
